<svg version="1.1" id="Layer_1" xmlns="http://www.w3.org/2000/svg" xmlns:xlink="http://www.w3.org/1999/xlink" x="0px" y="0px"
	 width="100%" viewBox="0 0 833 291" enable-background="new 0 0 833 291" xml:space="preserve">
<path fill="rgba(0,0,0,0)" opacity="1.000000" stroke="none" 
	d="
M532.000000,292.000000 
	C354.705994,292.000000 177.911987,292.000000 1.058988,292.000000 
	C1.058988,195.060928 1.058988,98.121811 1.058988,1.091345 
	C278.544006,1.091345 556.088013,1.091345 833.816040,1.091345 
	C833.816040,97.999725 833.816040,194.999832 833.816040,292.000000 
	C733.455139,292.000000 632.977600,292.000000 532.000000,292.000000 
M344.954712,152.500000 
	C344.954712,166.913666 344.954712,181.327332 344.954712,195.686096 
	C355.337982,195.686096 364.924805,195.686096 374.949860,195.686096 
	C374.949860,187.581268 375.767456,179.677872 374.754242,172.016632 
	C373.309601,161.093353 381.485718,156.859848 387.265869,149.957153 
	C395.681091,164.610748 403.601776,178.479874 411.637726,192.281891 
	C412.474487,193.719025 413.968628,195.790131 415.201477,195.820969 
	C426.249695,196.097397 437.307678,195.982269 448.989563,195.982269 
	C447.973755,194.084915 447.411926,192.905151 446.736969,191.794113 
	C434.547638,171.728943 422.456818,151.602203 410.045471,131.675156 
	C407.696686,127.904030 407.875397,125.382530 410.611084,122.080231 
	C415.814301,115.799271 420.647247,109.210533 425.604828,102.727325 
	C433.251801,92.727150 440.874207,82.708199 449.113342,71.902008 
	C437.508362,71.902008 426.910400,72.040932 416.319946,71.819527 
	C413.033020,71.750816 411.224731,72.979645 409.469360,75.594833 
	C399.074585,91.081482 388.517761,106.459396 377.999329,121.862877 
	C377.225250,122.996460 376.324646,124.043640 374.610474,126.257912 
	C374.610474,107.274071 374.610474,89.707863 374.610474,72.255096 
	C364.507263,72.255096 354.922913,72.255096 344.954651,72.255096 
	C344.954651,98.904396 344.954651,125.202202 344.954712,152.500000 
M123.981583,153.466156 
	C124.351395,155.084320 124.662010,156.718704 125.099907,158.318237 
	C131.641525,182.213409 150.650940,197.413589 174.662857,197.970032 
	C200.483475,198.568405 220.081879,185.142319 227.643829,161.007401 
	C232.727203,144.783096 232.735138,128.121201 228.797775,111.700699 
	C222.841385,86.860092 203.895935,71.621902 178.855865,70.671097 
	C153.940811,69.725021 133.907715,83.258781 126.232803,106.735138 
	C121.327400,121.739998 121.275093,137.152008 123.981583,153.466156 
M534.977600,169.486481 
	C533.237488,166.247940 531.497314,163.009415 529.218567,158.768433 
	C549.403870,158.768433 568.134888,158.768433 586.955444,158.768433 
	C586.955444,152.423050 587.242188,146.593155 586.901794,140.800110 
	C585.873108,123.294067 575.598267,109.249466 560.493103,104.274155 
	C542.716492,98.418938 522.278809,103.402527 511.437653,116.236015 
	C498.078522,132.050247 496.712128,162.793365 508.980927,179.499741 
	C520.551636,195.255493 536.953491,199.492340 555.432251,197.512787 
	C565.239014,196.462204 574.126709,192.705170 581.305115,185.731537 
	C582.588074,184.485168 584.019653,181.376480 583.417480,180.536819 
	C579.890076,175.618027 575.778809,171.117981 571.878845,166.493790 
	C558.304382,177.808014 545.220703,178.922684 534.977600,169.486481 
M329.047302,166.431717 
	C329.645538,159.492752 331.004425,152.520767 330.704742,145.620804 
	C329.646942,121.264603 316.049316,105.556694 293.163788,102.512390 
	C277.153198,100.382599 262.530518,103.914375 251.825348,117.098907 
	C238.634598,133.344650 237.987122,164.036972 250.343765,180.964188 
	C261.036041,195.611435 276.216156,199.497650 293.244751,197.538681 
	C311.684723,195.417358 323.467377,184.938370 329.047302,166.431717 
M743.605225,172.956879 
	C744.916077,167.146347 746.935547,161.393707 747.415710,155.515305 
	C749.548523,129.405396 738.103271,106.498268 710.346191,102.350922 
	C686.800720,98.832855 666.048584,111.146774 660.564514,133.639999 
	C658.715332,141.224609 658.640381,149.458496 659.035583,157.331329 
	C660.056885,177.676086 673.262878,193.226257 691.732544,196.898743 
	C715.084656,201.542007 733.895203,193.048843 743.605225,172.956879 
M118.691254,193.170547 
	C118.691254,186.556839 118.691254,179.943115 118.691254,172.860825 
	C100.953011,172.860825 83.734436,172.860825 66.129189,172.860825 
	C66.129189,138.986771 66.129189,105.592812 66.129189,72.363419 
	C56.003323,72.363419 46.278744,72.363419 36.688251,72.363419 
	C36.688251,113.759766 36.688251,154.786346 36.688251,196.004608 
	C63.350067,196.004608 89.653816,196.023621 115.957138,195.924774 
	C116.868431,195.921371 117.775307,194.740585 118.691254,193.170547 
M626.155212,195.960587 
	C626.742126,194.300049 627.825562,192.643509 627.839050,190.978363 
	C627.967773,174.984436 627.915466,158.989044 627.916443,142.994080 
	C627.916931,135.028793 630.542358,131.341385 638.459167,129.967392 
	C643.610046,129.073441 648.961060,129.332291 655.054016,129.033951 
	C655.054016,123.290947 655.018494,117.176659 655.062439,111.062935 
	C655.127136,102.063873 654.224121,101.210693 645.232483,102.084015 
	C644.409302,102.163956 643.598511,102.371407 642.782166,102.521011 
	C635.739136,103.811813 631.297302,108.628197 627.258240,114.757980 
	C626.693237,110.767220 626.235229,107.532181 625.765625,104.215225 
	C616.794678,104.215225 608.083435,104.215225 599.386597,104.215225 
	C599.386597,134.968765 599.386597,165.347839 599.386597,195.995728 
	C608.251038,195.995728 616.733398,195.995728 626.155212,195.960587 
M457.034119,108.620506 
	C457.034119,137.325241 457.034119,166.029984 457.034119,194.692383 
	C467.065857,194.692383 476.309418,194.692383 485.674133,194.692383 
	C485.674133,164.028320 485.674133,133.673462 485.674133,103.087723 
	C476.126801,103.087723 466.889282,103.087723 457.331055,103.087723 
	C457.223053,104.748413 457.128632,106.200050 457.034119,108.620506 
M771.633789,157.003555 
	C777.250427,157.003555 782.867065,157.003555 788.892334,157.003555 
	C790.128845,128.489670 791.342712,100.498787 792.560913,72.407516 
	C782.127747,72.407516 772.238647,72.407516 761.893433,72.407516 
	C763.121155,100.768318 764.332703,128.757782 765.555420,157.003540 
	C767.705872,157.003540 769.192810,157.003540 771.633789,157.003555 
M778.245605,169.116318 
	C768.267700,169.303741 761.871826,174.156464 761.070801,182.147125 
	C760.328796,189.550201 765.038269,195.905640 772.941956,197.565994 
	C779.749207,198.996033 785.872986,197.438019 790.371582,191.793610 
	C793.801453,187.490189 793.951416,181.108475 791.045532,176.340576 
	C788.316772,171.863373 783.987732,170.024277 778.245605,169.116318 
M456.531708,73.283379 
	C456.207550,76.042328 455.201935,78.925827 455.679413,81.538269 
	C457.563324,91.845848 471.485992,96.548935 481.075256,90.346420 
	C489.797028,84.704971 489.377319,72.270088 480.292664,67.159317 
	C472.307404,62.667015 462.250397,65.003510 456.531708,73.283379 
z"/>
<path fill="#DF7962" opacity="1.000000" stroke="none" 
	d="
M344.954681,152.000000 
	C344.954651,125.202202 344.954651,98.904396 344.954651,72.255096 
	C354.922913,72.255096 364.507263,72.255096 374.610474,72.255096 
	C374.610474,89.707863 374.610474,107.274071 374.610474,126.257912 
	C376.324646,124.043640 377.225250,122.996460 377.999329,121.862877 
	C388.517761,106.459396 399.074585,91.081482 409.469360,75.594833 
	C411.224731,72.979645 413.033020,71.750816 416.319946,71.819527 
	C426.910400,72.040932 437.508362,71.902008 449.113342,71.902008 
	C440.874207,82.708199 433.251801,92.727150 425.604828,102.727325 
	C420.647247,109.210533 415.814301,115.799271 410.611084,122.080231 
	C407.875397,125.382530 407.696686,127.904030 410.045471,131.675156 
	C422.456818,151.602203 434.547638,171.728943 446.736969,191.794113 
	C447.411926,192.905151 447.973755,194.084915 448.989563,195.982269 
	C437.307678,195.982269 426.249695,196.097397 415.201477,195.820969 
	C413.968628,195.790131 412.474487,193.719025 411.637726,192.281891 
	C403.601776,178.479874 395.681091,164.610748 387.265869,149.957153 
	C381.485718,156.859848 373.309601,161.093353 374.754242,172.016632 
	C375.767456,179.677872 374.949860,187.581268 374.949860,195.686096 
	C364.924805,195.686096 355.337982,195.686096 344.954712,195.686096 
	C344.954712,181.327332 344.954712,166.913666 344.954681,152.000000 
z"/>
<path fill="#020202" opacity="1.000000" stroke="none" 
	d="
M123.927719,153.044601 
	C121.275093,137.152008 121.327400,121.739998 126.232803,106.735138 
	C133.907715,83.258781 153.940811,69.725021 178.855865,70.671097 
	C203.895935,71.621902 222.841385,86.860092 228.797775,111.700699 
	C232.735138,128.121201 232.727203,144.783096 227.643829,161.007401 
	C220.081879,185.142319 200.483475,198.568405 174.662857,197.970032 
	C150.650940,197.413589 131.641525,182.213409 125.099907,158.318237 
	C124.662010,156.718704 124.351395,155.084320 123.927719,153.044601 
M181.442673,174.113617 
	C189.293396,172.705933 194.297089,167.602203 196.715683,160.557007 
	C202.666199,143.223541 202.620560,125.613541 196.838776,108.237312 
	C194.664902,101.704079 190.099533,96.863335 183.090805,94.896049 
	C169.893982,91.191818 158.667099,97.943634 155.173996,112.456284 
	C151.746124,126.697998 151.689819,141.177307 155.117767,155.440063 
	C158.503632,169.527695 167.554825,175.908890 181.442673,174.113617 
z"/>
<path fill="#DF7962" opacity="1.000000" stroke="none" 
	d="
M535.230774,169.747177 
	C545.220703,178.922684 558.304382,177.808014 571.878845,166.493790 
	C575.778809,171.117981 579.890076,175.618027 583.417480,180.536819 
	C584.019653,181.376480 582.588074,184.485168 581.305115,185.731537 
	C574.126709,192.705170 565.239014,196.462204 555.432251,197.512787 
	C536.953491,199.492340 520.551636,195.255493 508.980927,179.499741 
	C496.712128,162.793365 498.078522,132.050247 511.437653,116.236015 
	C522.278809,103.402527 542.716492,98.418938 560.493103,104.274155 
	C575.598267,109.249466 585.873108,123.294067 586.901794,140.800110 
	C587.242188,146.593155 586.955444,152.423050 586.955444,158.768433 
	C568.134888,158.768433 549.403870,158.768433 529.218567,158.768433 
	C531.497314,163.009415 533.237488,166.247940 535.230774,169.747177 
M536.598328,126.924942 
	C534.100708,131.201096 531.603027,135.477264 528.615784,140.591660 
	C539.874695,140.591660 549.346741,140.591660 558.785156,140.591660 
	C559.614624,126.666107 549.654602,120.341949 536.598328,126.924942 
z"/>
<path fill="#020202" opacity="1.000000" stroke="none" 
	d="
M328.968567,166.835144 
	C323.467377,184.938370 311.684723,195.417358 293.244751,197.538681 
	C276.216156,199.497650 261.036041,195.611435 250.343765,180.964188 
	C237.987122,164.036972 238.634598,133.344650 251.825348,117.098907 
	C262.530518,103.914375 277.153198,100.382599 293.163788,102.512390 
	C316.049316,105.556694 329.646942,121.264603 330.704742,145.620804 
	C331.004425,152.520767 329.645538,159.492752 328.968567,166.835144 
M300.859528,136.955460 
	C297.631470,127.526802 293.042572,123.716179 285.438934,124.150131 
	C278.008911,124.574181 272.813965,129.126419 271.653656,138.681061 
	C270.685394,146.654160 270.842133,154.977921 271.978546,162.935318 
	C273.236145,171.741364 278.892975,175.954620 286.498932,175.886459 
	C293.974579,175.819473 299.734558,171.245529 300.756592,162.557587 
	C301.716187,154.400513 300.982971,146.044327 300.859528,136.955460 
z"/>
<path fill="#DF7962" opacity="1.000000" stroke="none" 
	d="
M743.429199,173.296722 
	C733.895203,193.048843 715.084656,201.542007 691.732544,196.898743 
	C673.262878,193.226257 660.056885,177.676086 659.035583,157.331329 
	C658.640381,149.458496 658.715332,141.224609 660.564514,133.639999 
	C666.048584,111.146774 686.800720,98.832855 710.346191,102.350922 
	C738.103271,106.498268 749.548523,129.405396 747.415710,155.515305 
	C746.935547,161.393707 744.916077,167.146347 743.429199,173.296722 
M717.840820,137.980377 
	C717.639954,137.346329 717.440002,136.712006 717.238037,136.078308 
	C714.644165,127.939453 709.804932,123.957794 702.704041,124.119453 
	C695.806396,124.276497 690.998840,128.300369 688.857361,136.272827 
	C686.305725,145.772110 686.348206,155.376862 689.048767,164.838104 
	C691.109314,172.056885 696.311890,175.898239 703.244568,175.892715 
	C710.096680,175.887253 715.749146,172.066635 716.895203,164.469315 
	C718.164856,156.053238 717.687500,147.373611 717.840820,137.980377 
z"/>
<path fill="#030303" opacity="1.000000" stroke="none" 
	d="
M118.687744,193.639557 
	C117.775307,194.740585 116.868431,195.921371 115.957138,195.924774 
	C89.653816,196.023621 63.350067,196.004608 36.688251,196.004608 
	C36.688251,154.786346 36.688251,113.759766 36.688251,72.363419 
	C46.278744,72.363419 56.003323,72.363419 66.129189,72.363419 
	C66.129189,105.592812 66.129189,138.986771 66.129189,172.860825 
	C83.734436,172.860825 100.953011,172.860825 118.691254,172.860825 
	C118.691254,179.943115 118.691254,186.556839 118.687744,193.639557 
z"/>
<path fill="#DF7962" opacity="1.000000" stroke="none" 
	d="
M625.685547,195.978149 
	C616.733398,195.995728 608.251038,195.995728 599.386597,195.995728 
	C599.386597,165.347839 599.386597,134.968765 599.386597,104.215225 
	C608.083435,104.215225 616.794678,104.215225 625.765625,104.215225 
	C626.235229,107.532181 626.693237,110.767220 627.258240,114.757980 
	C631.297302,108.628197 635.739136,103.811813 642.782166,102.521011 
	C643.598511,102.371407 644.409302,102.163956 645.232483,102.084015 
	C654.224121,101.210693 655.127136,102.063873 655.062439,111.062935 
	C655.018494,117.176659 655.054016,123.290947 655.054016,129.033951 
	C648.961060,129.332291 643.610046,129.073441 638.459167,129.967392 
	C630.542358,131.341385 627.916931,135.028793 627.916443,142.994080 
	C627.915466,158.989044 627.967773,174.984436 627.839050,190.978363 
	C627.825562,192.643509 626.742126,194.300049 625.685547,195.978149 
z"/>
<path fill="#DF7962" opacity="1.000000" stroke="none" 
	d="
M457.034180,108.136093 
	C457.128632,106.200050 457.223053,104.748413 457.331055,103.087723 
	C466.889282,103.087723 476.126801,103.087723 485.674133,103.087723 
	C485.674133,133.673462 485.674133,164.028320 485.674133,194.692383 
	C476.309418,194.692383 467.065857,194.692383 457.034119,194.692383 
	C457.034119,166.029984 457.034119,137.325241 457.034180,108.136093 
z"/>
<path fill="#DF7963" opacity="1.000000" stroke="none" 
	d="
M771.156738,157.003540 
	C769.192810,157.003540 767.705872,157.003540 765.555420,157.003540 
	C764.332703,128.757782 763.121155,100.768318 761.893433,72.407516 
	C772.238647,72.407516 782.127747,72.407516 792.560913,72.407516 
	C791.342712,100.498787 790.128845,128.489670 788.892334,157.003555 
	C782.867065,157.003555 777.250427,157.003555 771.156738,157.003540 
z"/>
<path fill="#DF7A64" opacity="1.000000" stroke="none" 
	d="
M778.661621,169.143661 
	C783.987732,170.024277 788.316772,171.863373 791.045532,176.340576 
	C793.951416,181.108475 793.801453,187.490189 790.371582,191.793610 
	C785.872986,197.438019 779.749207,198.996033 772.941956,197.565994 
	C765.038269,195.905640 760.328796,189.550201 761.070801,182.147125 
	C761.871826,174.156464 768.267700,169.303741 778.661621,169.143661 
z"/>
<path fill="#DF7A63" opacity="1.000000" stroke="none" 
	d="
M456.702454,72.941818 
	C462.250397,65.003510 472.307404,62.667015 480.292664,67.159317 
	C489.377319,72.270088 489.797028,84.704971 481.075256,90.346420 
	C471.485992,96.548935 457.563324,91.845848 455.679413,81.538269 
	C455.201935,78.925827 456.207550,76.042328 456.702454,72.941818 
z"/>
<path fill="rgba(246,247,248,0)" opacity="1.000000" stroke="none" 
	d="
M181.042877,174.177612 
	C167.554825,175.908890 158.503632,169.527695 155.117767,155.440063 
	C151.689819,141.177307 151.746124,126.697998 155.173996,112.456284 
	C158.667099,97.943634 169.893982,91.191818 183.090805,94.896049 
	C190.099533,96.863335 194.664902,101.704079 196.838776,108.237312 
	C202.620560,125.613541 202.666199,143.223541 196.715683,160.557007 
	C194.297089,167.602203 189.293396,172.705933 181.042877,174.177612 
z"/>
<path fill="rgba(248,247,247,0)" opacity="1.000000" stroke="none" 
	d="
M536.895569,126.688110 
	C549.654602,120.341949 559.614624,126.666107 558.785156,140.591660 
	C549.346741,140.591660 539.874695,140.591660 528.615784,140.591660 
	C531.603027,135.477264 534.100708,131.201096 536.895569,126.688110 
z"/>
<path fill="rgba(245,246,247,0)" opacity="1.000000" stroke="none" 
	d="
M300.927063,137.365601 
	C300.982971,146.044327 301.716187,154.400513 300.756592,162.557587 
	C299.734558,171.245529 293.974579,175.819473 286.498932,175.886459 
	C278.892975,175.954620 273.236145,171.741364 271.978546,162.935318 
	C270.842133,154.977921 270.685394,146.654160 271.653656,138.681061 
	C272.813965,129.126419 278.008911,124.574181 285.438934,124.150131 
	C293.042572,123.716179 297.631470,127.526802 300.927063,137.365601 
z"/>
<path fill="rgba(248,247,248,0)" opacity="1.000000" stroke="none" 
	d="
M717.905884,138.394562 
	C717.687500,147.373611 718.164856,156.053238 716.895203,164.469315 
	C715.749146,172.066635 710.096680,175.887253 703.244568,175.892715 
	C696.311890,175.898239 691.109314,172.056885 689.048767,164.838104 
	C686.348206,155.376862 686.305725,145.772110 688.857361,136.272827 
	C690.998840,128.300369 695.806396,124.276497 702.704041,124.119453 
	C709.804932,123.957794 714.644165,127.939453 717.238037,136.078308 
	C717.440002,136.712006 717.639954,137.346329 717.905884,138.394562 
z"/>
</svg>